# xmcd
#
# Track frame offsets:
#	150
#	8308
#	18503
#	31195
#	41355
#	54303
#	68878
#	79185
#	93873
#	107795
#	119123
#	132883
#	148033
#	163570
#	176608
#	192183
#
# Disc length: 2703
#
# Revision: 1
# Processed by: cddbd v1.5.1PL0 Copyright (c) Steve Scherf et al.
# Submitted via: ExactAudioCopy v0.95a3
# Normalized: r0:TDELIM( - )
#
DISCID=c90a8d10
DTITLE=Various Artist - Country Cowboy Vol. 2
DYEAR=1900
DGENRE=Country
TTITLE0=Susan Raye - I've got a happy Heart
TTITLE1=Faron Young - Hello Walls
TTITLE2=Jonny Paycheck - Georgia in a Jug
TTITLE3=Don Williams - Take my Hand for a while
TTITLE4=Dolly Parton - Little Blossom
TTITLE5=Billy Jo Spears - Sunshine
TTITLE6=Buddy Knox - Devil Woman
TTITLE7=Rex Allan jr. - A Good Woman's Love
TTITLE8=Tennessee - Kentucky Sundown
TTITLE9=Matchbox - While I'm away
TTITLE10=Faron Young - Do not forsake me
TTITLE11=Kingston Trio - Tom Dooley
TTITLE12=Ray Pillow - How do I hide from a Memory
TTITLE13=Lee Hazelwood - These Boots are made for Walking
TTITLE14=Sammy's Saloon - Highway Calling
TTITLE15=Jerry and Linda Gail Lewis - Jackson
EXTD=
EXTT0=
EXTT1=
EXTT2=
EXTT3=
EXTT4=
EXTT5=
EXTT6=
EXTT7=
EXTT8=
EXTT9=
EXTT10=
EXTT11=
EXTT12=
EXTT13=
EXTT14=
EXTT15=
PLAYORDER=
